<svg width="40.000000" height="49.000000" viewBox="0 0 40 49" fill="none" xmlns="http://www.w3.org/2000/svg" xmlns:xlink="http://www.w3.org/1999/xlink">
	<desc>
			Created with Pixso.
	</desc>
	<defs/>
	<path d="M32.24 44.6L26.11 37.57L26.35 42.39L23.28 45.97L32.24 44.6Z" fill="#F5F5F7" fill-opacity="1.000000" fill-rule="nonzero"/>
	<path d="M27.1 40.71L27.01 40.69L26.91 40.67L26.71 40.63L26.29 40.54C26.02 40.48 25.74 40.42 25.47 40.35C24.92 40.22 24.37 40.07 23.82 39.92C22.72 39.61 21.64 39.27 20.56 38.88C19.49 38.5 18.43 38.08 17.39 37.61C16.35 37.15 15.33 36.64 14.35 36.07C13.37 35.51 12.42 34.89 11.52 34.21C10.63 33.53 9.8 32.77 9.04 31.94C8.29 31.11 7.65 30.19 7.13 29.2C6.62 28.21 6.26 27.14 6.08 26.03C6.04 25.75 6.01 25.46 5.99 25.18C5.97 24.89 5.96 24.61 5.95 24.32C5.95 23.75 5.98 23.17 6.04 22.6C6.16 21.44 6.4 20.31 6.74 19.2C7.09 18.08 7.51 16.99 8.02 15.94C8.53 14.88 9.09 13.84 9.72 12.85C10.96 10.85 12.4 8.97 13.96 7.2C14.74 6.31 15.55 5.45 16.39 4.62C16.81 4.2 17.24 3.79 17.67 3.39C18.1 2.99 18.54 2.6 19 2.22C18.53 2.58 18.07 2.96 17.62 3.34C17.17 3.72 16.73 4.11 16.29 4.51C15.42 5.31 14.58 6.14 13.76 7C12.12 8.72 10.59 10.56 9.25 12.53C8.57 13.52 7.95 14.55 7.39 15.61C6.83 16.68 6.34 17.79 5.94 18.93C5.53 20.08 5.24 21.27 5.06 22.48C4.97 23.09 4.92 23.7 4.9 24.32C4.89 24.62 4.89 24.93 4.9 25.24C4.91 25.55 4.93 25.86 4.95 26.17C5.06 27.43 5.37 28.66 5.86 29.81C6.35 30.97 6.99 32.05 7.76 33.03C8.52 34.01 9.37 34.91 10.29 35.73C11.21 36.54 12.18 37.29 13.19 37.97C14.2 38.65 15.24 39.28 16.3 39.86C17.36 40.43 18.45 40.96 19.55 41.45C20.65 41.94 21.77 42.39 22.9 42.81C23.47 43.01 24.04 43.21 24.62 43.4C24.9 43.49 25.19 43.58 25.48 43.67L25.93 43.8L26.15 43.86L26.27 43.89L26.39 43.93L27.1 40.71Z" fill="#F5F5F7" fill-opacity="1.000000" fill-rule="nonzero"/>
</svg>
